<svg aria-hidden="true" style="position: absolute; width: 0; height: 0; overflow: hidden;" version="1.1" xmlns="http://www.w3.org/2000/svg" xmlns:xlink="http://www.w3.org/1999/xlink">
<defs>
<symbol id="icon-mobile-menu" viewBox="0 0 32 32">
<path d="M3.2 5.12c-0.005-0-0.012-0-0.018-0-0.707 0-1.28 0.573-1.28 1.28s0.573 1.28 1.28 1.28c0.006 0 0.013-0 0.019-0h25.599c0.005 0 0.012 0 0.018 0 0.707 0 1.28-0.573 1.28-1.28s-0.573-1.28-1.28-1.28c-0.006 0-0.013 0-0.019 0h-25.599zM3.2 14.72c-0.005-0-0.012-0-0.018-0-0.707 0-1.28 0.573-1.28 1.28s0.573 1.28 1.28 1.28c0.006 0 0.013-0 0.019-0h25.599c0.005 0 0.012 0 0.018 0 0.707 0 1.28-0.573 1.28-1.28s-0.573-1.28-1.28-1.28c-0.006 0-0.013 0-0.019 0h-25.599zM3.2 24.32c-0.005-0-0.012-0-0.018-0-0.707 0-1.28 0.573-1.28 1.28s0.573 1.28 1.28 1.28c0.006 0 0.013-0 0.019-0h25.599c0.005 0 0.012 0 0.018 0 0.707 0 1.28-0.573 1.28-1.28s-0.573-1.28-1.28-1.28c-0.006 0-0.013 0-0.019 0h-25.599z"></path>
</symbol>
</defs>
</svg>
